<?xml version="1.0" encoding="UTF-8"?>
<svg width="600" height="400" viewBox="0 0 600 400" xmlns="http://www.w3.org/2000/svg">
    <!-- Background -->
    <rect width="600" height="400" fill="#f8f9fa"/>
    
    <!-- Sun -->
    <circle cx="500" cy="100" r="50" fill="#FFD700"/>
    <g fill="#FFD700">
        <circle cx="500" cy="100" r="40" fill="#FFEB3B"/>
    </g>
    
    <!-- Clouds -->
    <g fill="#ffffff">
        <circle cx="100" cy="80" r="30"/>
        <circle cx="130" cy="80" r="25"/>
        <circle cx="160" cy="80" r="30"/>
        <circle cx="400" cy="150" r="25"/>
        <circle cx="430" cy="150" r="20"/>
        <circle cx="460" cy="150" r="25"/>
    </g>
    
    <!-- Ground -->
    <rect x="0" y="250" width="600" height="150" fill="#8BC34A"/>
    
    <!-- Plants -->
    <g fill="#4CAF50">
        <!-- Plant 1 -->
        <path d="M150 250 L150 200 L140 220 L160 220 Z"/>
        <circle cx="150" cy="190" r="15"/>
        
        <!-- Plant 2 -->
        <path d="M250 250 L250 180 L240 200 L260 200 Z"/>
        <circle cx="250" cy="170" r="20"/>
        
        <!-- Plant 3 -->
        <path d="M350 250 L350 190 L340 210 L360 210 Z"/>
        <circle cx="350" cy="180" r="18"/>
        
        <!-- Plant 4 -->
        <path d="M450 250 L450 200 L440 220 L460 220 Z"/>
        <circle cx="450" cy="190" r="15"/>
    </g>
    
    <!-- Data Visualization Elements -->
    <g fill="#2193b0" opacity="0.8">
        <rect x="50" y="300" width="100" height="50" rx="5"/>
        <rect x="200" y="280" width="100" height="70" rx="5"/>
        <rect x="350" y="290" width="100" height="60" rx="5"/>
        <rect x="500" y="270" width="100" height="80" rx="5"/>
    </g>
    
    <!-- Connection Lines -->
    <g stroke="#2193b0" stroke-width="2" opacity="0.6">
        <line x1="100" y1="350" x2="200" y2="350"/>
        <line x1="250" y1="350" x2="350" y2="350"/>
        <line x1="400" y1="350" x2="500" y2="350"/>
    </g>
</svg> 